<?xml version="1.0" encoding="UTF-8"?>
<svg width="120" height="120" viewBox="0 0 120 120" fill="none" xmlns="http://www.w3.org/2000/svg">
  <rect width="120" height="120" fill="#F5F5F5"/>
  <path d="M60 40C51.1634 40 44 47.1634 44 56C44 64.8366 51.1634 72 60 72C68.8366 72 76 64.8366 76 56C76 47.1634 68.8366 40 60 40ZM60 68C53.3726 68 48 62.6274 48 56C48 49.3726 53.3726 44 60 44C66.6274 44 72 49.3726 72 56C72 62.6274 66.6274 68 60 68Z" fill="#BDBDBD"/>
  <path d="M60 48C56.6863 48 54 50.6863 54 54C54 57.3137 56.6863 60 60 60C63.3137 60 66 57.3137 66 54C66 50.6863 63.3137 48 60 48Z" fill="#BDBDBD"/>
  <path d="M84 80H36C33.7909 80 32 81.7909 32 84V88C32 90.2091 33.7909 92 36 92H84C86.2091 92 88 90.2091 88 88V84C88 81.7909 86.2091 80 84 80Z" fill="#BDBDBD"/>
</svg>